# xmcd CD database file
# Copyright (C) 1993-1998 Ti Kan
#
# Track frame offsets:
#	150
#	14380
#	25942
#	53150
#	68087
#	90660
#	112297
#	129627
#	150307
#	166197
#
# Disc length: 2429 seconds
#
# Revision: 0
# Processed by: cddbd v1.5.2PL0 Copyright (c) Steve Scherf et al.
# Submitted via: CDmax 1.5
#
DISCID=7a097b0a
DTITLE=Mick Pini - Wildman
DYEAR=1989
DGENRE=Blues Rock
TTITLE0=The Collector
TTITLE1=Onion Rings
TTITLE2=You Can Make It
TTITLE3=Unknown Destination
TTITLE4=It's Got To Be The Blues
TTITLE5=More Than I Could Chew
TTITLE6=Free Load
TTITLE7=Liek Mother Like Daughter
TTITLE8=Freddy's Midnite Dream
TTITLE9=Too Many Mountains
EXTD=
EXTT0=
EXTT1=
EXTT2=
EXTT3=
EXTT4=
EXTT5=
EXTT6=
EXTT7=
EXTT8=
EXTT9=
PLAYORDER=
